<?xml version="1.0" standalone="no"?>
<!DOCTYPE svg PUBLIC "-//W3C//DTD SVG 20010904//EN"
 "http://www.w3.org/TR/2001/REC-SVG-20010904/DTD/svg10.dtd">
<svg version="1.0" xmlns="http://www.w3.org/2000/svg"
 width="512.000000pt" height="512.000000pt" viewBox="0 0 512.000000 512.000000"
 preserveAspectRatio="xMidYMid meet">
<metadata>
Created by potrace 1.14, written by Peter Selinger 2001-2017
</metadata>
<g transform="translate(0.000000,512.000000) scale(0.100000,-0.100000)"
fill="#000000" stroke="none">
<path d="M2378 5115 c-2 -1 -39 -5 -82 -9 -44 -4 -82 -9 -85 -11 -4 -2 -34 -7
-66 -10 -117 -14 -472 -111 -499 -136 -6 -5 -16 -9 -23 -9 -8 0 -44 -14 -81
-31 -37 -17 -83 -38 -102 -47 -19 -9 -75 -39 -125 -66 l-90 -51 -290 -1 c-268
-1 -293 -2 -336 -21 -25 -11 -60 -36 -77 -54 -57 -61 -62 -94 -62 -383 l0
-261 -46 -70 c-97 -148 -208 -371 -267 -540 -29 -80 -74 -237 -81 -278 -3 -15
-7 -35 -10 -45 -3 -9 -7 -34 -11 -56 -3 -21 -7 -41 -9 -45 -4 -6 -12 -72 -26
-201 -8 -85 -5 -454 4 -515 4 -22 13 -80 21 -130 133 -821 665 -1533 1417
-1894 59 -28 111 -51 115 -51 4 0 19 -6 33 -13 14 -7 66 -27 115 -44 289 -100
527 -140 845 -140 403 0 740 75 1100 244 745 351 1293 1078 1426 1893 38 235
40 573 5 805 -96 632 -434 1215 -936 1616 -78 63 -199 147 -290 201 -66 39
-298 158 -310 158 -4 0 -21 6 -38 14 -137 62 -421 138 -607 162 -25 3 -56 8
-70 10 -27 6 -456 14 -462 9z"/>
</g>
</svg>
